<?xml version="1.0" encoding="utf-8"?>
<!-- Generator: Adobe Illustrator 15.1.0, SVG Export Plug-In . SVG Version: 6.00 Build 0)  -->
<!DOCTYPE svg PUBLIC "-//W3C//DTD SVG 1.1//EN" "http://www.w3.org/Graphics/SVG/1.1/DTD/svg11.dtd">
<svg version="1.1" id="Layer_1" xmlns="http://www.w3.org/2000/svg" xmlns:xlink="http://www.w3.org/1999/xlink" x="0px" y="0px"
	 width="451.797px" height="174.521px" viewBox="0 0 451.797 174.521" enable-background="new 0 0 451.797 174.521"
	 xml:space="preserve">
<radialGradient id="SVGID_1_" cx="118.8848" cy="116.6182" r="165.6871" gradientUnits="userSpaceOnUse">
	<stop  offset="0" style="stop-color:#009245"/>
	<stop  offset="1" style="stop-color:#8CC63F"/>
</radialGradient>
<path fill="url(#SVGID_1_)" d="M179.334,11.843c-6.38-4.176-13.525-5.299-20.42-3.839c-6.894,1.46-12.045,3.767-17.377,11.911
	c-7.607,11.622-5.555,26.76-16.02,42.746c-2.164,3.305-4.508,6.1-6.933,8.566c-1.762-2.692-3.392-5.661-4.779-9.027
	c-7.285-17.666-2.22-32.27-7.517-45.113c-3.711-8.998-8.214-12.213-14.712-14.939c-6.499-2.726-13.699-2.975-20.75-0.067
	c-7.049,2.907-12.011,8.173-14.699,14.687s-3.692,12.067,0.019,21.066c5.296,12.842,18.947,19.695,26.232,37.361
	c1.372,3.324,2.313,6.537,2.974,9.647c-3.395-0.052-6.959-0.384-10.743-1.187c-18.693-3.963-27.907-16.147-41.496-19.027
	c-9.523-2.019-14.803-0.023-20.722,3.8C6.473,72.253,2.195,78.085,0.613,85.544c-1.581,7.461-0.032,14.5,3.826,20.395
	c3.859,5.897,7.837,9.744,17.36,11.764c13.588,2.881,27.033-4.748,45.727-0.784c16.061,3.404,25.088,13.046,35.929,17.522
	c0.492,0.225,0.99,0.445,1.504,0.662c6.498,2.724,13.76,2.95,20.809,0.041c7.051-2.905,12.041-8.185,14.729-14.696
	c0.711-1.726,1.283-3.374,1.682-5.036c3.236-10.084,3.795-21.904,11.81-34.148c10.467-15.99,25.38-20.057,32.987-31.678
	c5.331-8.145,5.441-13.678,4.022-20.58C189.576,22.103,185.715,16.02,179.334,11.843z"/>
<g>
	<path fill="#4D4D4D" d="M260.857,118.716c1.048,9.301,8.122,14.934,16.898,14.934c7.859,0,12.969-3.668,16.898-8.515l11.266,8.515
		c-7.336,9.039-16.637,12.576-26.592,12.576c-18.994,0-34.19-13.231-34.19-33.012s15.196-33.011,34.19-33.011
		c17.553,0,29.475,12.313,29.475,34.19v4.322H260.857z M293.082,106.927c-0.131-9.17-6.156-14.935-15.98-14.935
		c-9.301,0-15.064,5.896-16.244,14.935H293.082z"/>
	<path fill="#4D4D4D" d="M403.852,118.716c1.048,9.301,8.122,14.934,16.898,14.934c7.859,0,12.969-3.668,16.898-8.515l11.266,8.515
		c-7.336,9.039-16.637,12.576-26.592,12.576c-18.994,0-34.19-13.231-34.19-33.012s15.196-33.011,34.19-33.011
		c17.553,0,29.475,12.313,29.475,34.19v4.322H403.852z M436.076,106.927c-0.131-9.17-6.156-14.935-15.98-14.935
		c-9.301,0-15.064,5.896-16.244,14.935H436.076z"/>
	<path fill="#4D4D4D" d="M206.886,79.203c-18.738,0-33.928,15.19-33.928,33.929v61.389h15.029V141.31
		c5.401,3.631,11.902,5.75,18.899,5.75c18.738,0,33.928-15.19,33.928-33.928C240.814,94.394,225.624,79.203,206.886,79.203z
		 M206.886,132.06c-10.245,0-18.595-8.187-18.899-18.359v-0.568h-0.029c0-10.438,8.491-18.929,18.928-18.929
		s18.928,8.491,18.928,18.929C225.814,123.568,217.323,132.06,206.886,132.06z"/>
	<path fill="#4D4D4D" d="M350.197,79.203c-18.737,0-33.928,15.19-33.928,33.929v61.389h15.029V141.31
		c5.4,3.631,11.902,5.75,18.898,5.75c18.738,0,33.929-15.19,33.929-33.928C384.126,94.394,368.936,79.203,350.197,79.203z
		 M350.197,132.06c-10.244,0-18.595-8.187-18.898-18.359v-0.568h-0.029c0-10.438,8.491-18.929,18.928-18.929
		c10.438,0,18.929,8.491,18.929,18.929C369.126,123.568,360.635,132.06,350.197,132.06z"/>
</g>
</svg>
