<?xml version="1.0" encoding="utf-8"?>
<!-- Generator: Adobe Illustrator 15.1.0, SVG Export Plug-In . SVG Version: 6.00 Build 0)  -->
<!DOCTYPE svg PUBLIC "-//W3C//DTD SVG 1.1//EN" "http://www.w3.org/Graphics/SVG/1.1/DTD/svg11.dtd">
<svg version="1.1" id="Layer_1" xmlns="http://www.w3.org/2000/svg" xmlns:xlink="http://www.w3.org/1999/xlink" x="0px" y="0px"
	 width="598.71px" height="173.417px" viewBox="0 0 598.71 173.417" enable-background="new 0 0 598.71 173.417"
	 xml:space="preserve">
<g>
	<path fill="#FFFFFF" d="M218.269,133.619c0,0-12.758,10.714-21.305,10.714c-18.877,0-30.231-14.031-30.231-32.145
		s12.118-32.148,29.594-32.148c11.481,0,17.603,5.358,20.794,9.313h0.38V46.364h15.309v96.438h-14.542V133.619z M200.025,130.558
		c11.227,0,17.986-8.803,17.986-18.369c0-9.567-6.759-18.37-17.986-18.37c-11.224,0-17.987,8.803-17.987,18.37
		C182.039,121.755,188.801,130.558,200.025,130.558z"/>
	<path fill="#FFFFFF" d="M282.432,134.383h-0.384c-4.335,6.889-11.48,9.95-19.644,9.95c-11.354,0-22.325-6.252-22.325-18.37
		c0-19.9,23.218-21.301,38.527-21.301h3.825v-1.66c0-7.526-5.869-11.481-14.032-11.481c-6.379,0-12.245,2.555-16.329,6.379
		l-8.037-8.036c6.763-6.889,16.329-9.823,26.023-9.823c26.152,0,26.152,18.88,26.152,27.557v35.206h-13.778V134.383z
		 M281.538,115.376h-3.188c-8.42,0-22.962,0.637-22.962,9.44c0,5.611,5.742,8.036,10.714,8.036c10.46,0,15.436-5.485,15.436-14.032
		V115.376z"/>
	<path fill="#FFFFFF" d="M306.667,81.573h15.309v9.694h0.254c3.317-7.016,10.08-11.228,18.116-11.228
		c1.91,0,3.698,0.384,5.485,0.894v14.799c-2.554-0.641-4.976-1.147-7.399-1.147c-14.415,0-16.456,12.118-16.456,15.433v32.785
		h-15.309V81.573z"/>
	<path fill="#FFFFFF" d="M351.572,63.841h15.309v17.732h16.84v13.012h-16.84v26.786c0,6.123,1.787,9.95,8.547,9.95
		c2.678,0,6.379-0.51,8.293-1.913v12.884c-3.191,1.531-8.547,2.041-12.117,2.041c-16.203,0-20.031-7.272-20.031-21.685V63.841z"/>
	<path fill="#FFFFFF" d="M422.547,81.573h15.309v9.694h0.254c3.317-7.016,10.076-11.228,18.113-11.228
		c1.913,0,3.701,0.384,5.484,0.894v14.799c-2.551-0.641-4.975-1.147-7.398-1.147c-14.412,0-16.453,12.118-16.453,15.433v32.785
		h-15.309V81.573z"/>
	<path fill="#FFFFFF" d="M494.109,80.04c18.496,0,33.295,12.885,33.295,32.148c0,19.26-14.799,32.145-33.295,32.145
		c-18.497,0-33.293-12.885-33.293-32.145C460.816,92.925,475.612,80.04,494.109,80.04z M494.109,130.558
		c11.227,0,17.986-8.803,17.986-18.369c0-9.567-6.76-18.37-17.986-18.37c-11.225,0-17.986,8.803-17.986,18.37
		C476.123,121.755,482.885,130.558,494.109,130.558z"/>
	<path fill="#FFFFFF" d="M598.71,81.573v55.744c0,22.067-10.714,36.1-34.569,36.1c-11.354,0-21.685-2.424-30.361-10.077
		l9.188-12.501c6.122,5.612,12.501,8.803,21.047,8.803c14.796,0,19.391-8.419,19.391-20.54v-4.462h-0.257
		c-4.465,5.995-12.374,8.927-20.026,8.927c-18.371,0-30.488-14.032-30.488-31.378c0-18.113,11.354-32.148,30.234-32.148
		c8.546,0,16.582,3.317,21.047,10.717h0.254v-9.184H598.71z M547.941,112.059c0,9.696,7.652,17.732,17.986,17.732
		c11.352,0,18.24-7.782,18.24-17.986c0-10.587-7.016-17.986-18.113-17.986C555.338,93.818,547.941,101.218,547.941,112.059z"/>
	<path fill="#FFFFFF" d="M389.511,72.391c0-17.045,3.847-28.193,22.94-28.193c3.333,0,8.779,1.521,11.982,2.161l-1.027,13.075
		c-2.176-0.514-6.469-2.165-8.648-2.165c-8.586,0-9.865,5.896-9.865,12.688v11.148h12.452v13.072h-12.452v48.443h-15.382V72.391z"/>
</g>
<radialGradient id="SVGID_1_" cx="118.8848" cy="116.6182" r="165.6871" gradientUnits="userSpaceOnUse">
	<stop  offset="0" style="stop-color:#009245"/>
	<stop  offset="1" style="stop-color:#8CC63F"/>
</radialGradient>
<path fill="url(#SVGID_1_)" d="M179.334,11.843c-6.38-4.176-13.525-5.299-20.42-3.839c-6.894,1.46-12.045,3.767-17.377,11.911
	c-7.607,11.622-5.555,26.76-16.02,42.746c-2.164,3.305-4.508,6.1-6.933,8.566c-1.762-2.692-3.392-5.661-4.779-9.027
	c-7.285-17.666-2.22-32.27-7.517-45.113c-3.711-8.998-8.214-12.213-14.712-14.939c-6.499-2.726-13.699-2.975-20.75-0.067
	c-7.049,2.907-12.011,8.173-14.699,14.687s-3.692,12.067,0.019,21.066c5.296,12.842,18.947,19.695,26.232,37.361
	c1.372,3.324,2.313,6.537,2.974,9.647c-3.395-0.052-6.959-0.384-10.743-1.187c-18.693-3.963-27.907-16.147-41.496-19.027
	c-9.523-2.019-14.803-0.023-20.722,3.8C6.473,72.253,2.195,78.085,0.613,85.544c-1.581,7.461-0.032,14.5,3.826,20.395
	c3.859,5.897,7.837,9.744,17.36,11.764c13.588,2.881,27.033-4.748,45.727-0.784c16.061,3.404,25.088,13.046,35.929,17.522
	c0.492,0.225,0.99,0.445,1.504,0.662c6.498,2.724,13.76,2.95,20.809,0.041c7.051-2.905,12.041-8.185,14.729-14.696
	c0.711-1.726,1.283-3.374,1.682-5.036c3.236-10.084,3.795-21.904,11.81-34.148c10.467-15.99,25.38-20.057,32.987-31.678
	c5.331-8.145,5.441-13.678,4.022-20.58C189.576,22.103,185.715,16.02,179.334,11.843z"/>
</svg>
